<?xml version="1.0" standalone="no"?>
<!DOCTYPE svg PUBLIC "-//W3C//DTD SVG 20010904//EN"
 "http://www.w3.org/TR/2001/REC-SVG-20010904/DTD/svg10.dtd">
<svg version="1.0" xmlns="http://www.w3.org/2000/svg"
 width="1024.000000pt" height="1024.000000pt" viewBox="0 0 1024.000000 1024.000000"
 preserveAspectRatio="xMidYMid meet">

<g transform="translate(0.000000,1024.000000) scale(0.100000,-0.100000)"
fill="#ff7f50" stroke="none">
<path d="M4495 8224 c-502 -86 -998 -309 -1420 -637 -156 -121 -394 -359 -537
-537 -318 -395 -540 -885 -608 -1345 -23 -149 -24 -185 -9 -238 11 -40 67
-110 103 -129 68 -37 168 -22 232 34 49 44 62 73 85 201 104 578 372 1079 800
1492 401 386 863 625 1424 736 178 35 226 57 272 123 28 41 33 57 33 107 0 33
-6 74 -14 92 -27 65 -131 129 -203 126 -10 0 -81 -11 -158 -25z"/>
<path d="M5468 8236 c-95 -26 -158 -105 -158 -199 0 -60 18 -104 60 -145 48
-48 72 -58 240 -92 510 -105 943 -317 1320 -647 280 -245 480 -501 643 -821
120 -235 204 -485 252 -742 22 -121 41 -172 77 -209 59 -60 121 -78 193 -57
66 20 113 61 141 120 28 60 29 92 9 227 -77 510 -296 989 -654 1429 -110 136
-338 363 -471 469 -405 325 -936 570 -1420 655 -134 23 -182 26 -232 12z"/>
<path d="M4880 7493 c-145 -14 -201 -26 -196 -40 4 -8 15 -59 26 -112 29 -136
47 -211 53 -217 2 -3 44 0 93 7 130 17 389 14 519 -6 389 -59 708 -200 1057
-468 84 -64 131 -81 192 -67 51 11 86 38 113 86 49 84 19 174 -86 260 -185
154 -492 330 -716 412 -192 70 -408 120 -607 142 -90 9 -366 11 -448 3z"/>
<path d="M4869 6841 c-41 -13 -77 -41 -99 -76 -18 -30 -20 -49 -20 -231 l0
-199 -83 -26 c-46 -15 -116 -43 -156 -63 -40 -20 -78 -36 -85 -35 -6 0 -69 68
-141 150 -71 83 -142 157 -157 165 -38 20 -87 17 -128 -7 -62 -38 -305 -293
-404 -426 -120 -160 -161 -238 -152 -287 4 -19 14 -44 24 -55 9 -11 91 -62
182 -112 91 -50 168 -94 173 -98 4 -4 -4 -40 -18 -80 -13 -41 -28 -95 -31
-122 l-7 -49 -157 0 c-178 0 -224 -10 -278 -63 -68 -65 -96 -166 -71 -255 17
-61 96 -142 155 -160 25 -7 103 -12 193 -12 139 0 151 -1 151 -18 0 -10 13
-61 30 -112 16 -52 30 -98 30 -102 0 -3 -77 -51 -171 -105 -95 -54 -179 -109
-188 -123 -26 -40 -19 -101 20 -165 106 -176 383 -494 508 -584 51 -36 101
-41 142 -13 14 9 85 83 157 164 l132 147 83 -39 c45 -21 119 -51 164 -67 l83
-28 0 -178 c0 -202 4 -218 72 -267 l41 -30 229 0 c251 0 270 3 323 59 l30 32
3 194 3 193 77 27 c42 15 111 44 153 65 41 21 80 35 85 32 6 -4 61 -65 123
-137 143 -164 166 -185 209 -185 57 0 113 39 243 170 192 194 399 478 399 549
0 65 -28 91 -197 184 -87 48 -164 91 -171 96 -11 7 -8 27 17 105 17 53 31 105
31 116 0 19 7 20 151 20 90 0 168 5 193 12 55 16 140 101 155 154 32 116 -12
236 -108 292 -44 26 -54 27 -216 32 l-169 5 -12 55 c-10 52 -34 136 -49 172
-5 13 27 35 164 113 94 53 180 108 192 123 17 21 20 37 16 74 -9 95 -254 414
-463 603 -107 97 -143 115 -198 101 -16 -4 -80 -69 -167 -169 -79 -89 -143
-163 -143 -164 -1 -1 -44 19 -96 44 -52 25 -122 55 -155 67 l-60 22 -5 204
c-5 194 -6 207 -28 238 -45 63 -63 67 -307 69 -121 1 -232 -2 -246 -6z m334
-1102 c144 -22 284 -95 392 -204 114 -115 173 -235 197 -399 50 -347 -206
-702 -554 -771 -354 -70 -701 135 -815 480 -23 68 -27 98 -27 205 -1 112 2
134 28 214 107 325 438 527 779 475z"/>
<path d="M6973 6394 c-138 -49 -163 -246 -42 -330 123 -85 300 10 299 160 -1
74 -64 155 -138 176 -48 13 -67 12 -119 -6z"/>
<path d="M7320 5900 c-19 -10 -86 -40 -148 -67 -86 -36 -111 -51 -107 -62 4
-9 22 -70 42 -136 92 -313 112 -614 62 -932 -6 -40 -9 -78 -6 -86 3 -8 27 -20
54 -26 26 -5 95 -24 152 -40 58 -17 106 -29 108 -27 8 8 43 212 54 315 14 136
7 414 -15 546 -34 212 -124 535 -149 535 -7 -1 -28 -9 -47 -20z"/>
<path d="M2040 4784 c-113 -49 -148 -149 -116 -334 49 -280 151 -591 278 -843
179 -358 491 -742 823 -1014 432 -354 1000 -611 1522 -689 119 -18 168 -11
231 31 102 68 123 213 45 306 -38 45 -92 68 -216 90 -303 54 -549 137 -806
270 -530 274 -955 698 -1210 1206 -109 218 -191 453 -232 666 -32 170 -46 213
-82 254 -59 67 -158 91 -237 57z"/>
<path d="M7986 4785 c-94 -33 -124 -83 -162 -270 -73 -359 -205 -683 -398
-980 -103 -157 -167 -237 -316 -389 -305 -313 -599 -514 -967 -659 -167 -66
-303 -106 -528 -152 -188 -40 -226 -57 -272 -127 -22 -33 -28 -52 -27 -97 0
-88 43 -155 124 -196 90 -46 461 28 815 162 785 298 1461 938 1780 1687 141
333 244 746 215 866 -16 67 -75 133 -137 154 -56 19 -76 19 -127 1z"/>
</g>
</svg>
